<?xml version="1.0" encoding="iso-8859-1"?>
<!-- Generator: Adobe Illustrator 19.0.0, SVG Export Plug-In . SVG Version: 6.00 Build 0)  -->
<svg version="1.1" id="Capa_1" xmlns="http://www.w3.org/2000/svg" xmlns:xlink="http://www.w3.org/1999/xlink" x="0px" y="0px"
	 viewBox="0 0 512.001 512.001" style="enable-background:new 0 0 512.001 512.001;" xml:space="preserve">
<g>
	<g>
		<circle cx="406" cy="226" r="15"/>
	</g>
</g>
<g>
	<g>
		<circle cx="346" cy="226" r="15"/>
	</g>
</g>
<g>
	<g>
		<circle cx="286" cy="226" r="15"/>
	</g>
</g>
<g>
	<g>
		<circle cx="226" cy="91" r="15"/>
	</g>
</g>
<g>
	<g>
		<circle cx="166" cy="91" r="15"/>
	</g>
</g>
<g>
	<g>
		<circle cx="106" cy="91" r="15"/>
	</g>
</g>
<g>
	<g>
		<path d="M467,136H331V61c0-24.813-20.187-45-45-45H45C20.187,16,0,36.187,0,61v90c0,24.813,20.187,45,45,45h16v45
			c0,6.067,3.654,11.537,9.26,13.858c1.852,0.767,3.798,1.14,5.727,1.142H45c-24.813,0-45,20.187-45,45v90c0,24.813,20.187,45,45,45
			h16v45c0,6.067,3.654,11.537,9.26,13.858c5.605,2.322,12.057,1.038,16.347-3.252L142.213,436H286c24.813,0,45-20.187,45-45v-75
			h47.975l45.502,54.603c4.043,4.852,10.693,6.652,16.63,4.501c5.938-2.15,9.894-7.789,9.894-14.104v-45h16
			c24.813,0,45-20.187,45-45v-90C512,156.187,491.813,136,467,136z M45,166c-8.271,0-15-6.729-15-15V61c0-8.271,6.729-15,15-15h241
			c8.271,0,15,6.729,15,15v75h-75c-19.555,0-36.228,12.542-42.42,30H136c-3.979,0-7.794,1.581-10.606,4.394L91,204.786V181
			c0-8.284-6.716-15-15-15H45z M181,196v60H76.007c3.9-0.003,7.733-1.527,10.599-4.394L142.213,196H181z M301,391
			c0,8.271-6.729,15-15,15H136c-3.979,0-7.794,1.581-10.606,4.394L91,444.786V421c0-8.284-6.716-15-15-15H45
			c-8.271,0-15-6.729-15-15v-90c0-8.271,6.729-15,15-15h241c8.271,0,15,6.729,15,15V391z M482,271c0,8.271-6.729,15-15,15h-31
			c-8.284,0-15,6.716-15,15v18.569l-23.477-28.172c-2.85-3.42-7.071-5.397-11.523-5.397h-57.58c-6.192-17.458-22.865-30-42.42-30
			h-75v-75c0-8.271,6.729-15,15-15h241c8.271,0,15,6.729,15,15V271z"/>
	</g>
</g>
<g>
	<g>
		<circle cx="226" cy="346" r="15"/>
	</g>
</g>
<g>
	<g>
		<circle cx="166" cy="346" r="15"/>
	</g>
</g>
<g>
	<g>
		<circle cx="106" cy="346" r="15"/>
	</g>
</g>
<g>
</g>
<g>
</g>
<g>
</g>
<g>
</g>
<g>
</g>
<g>
</g>
<g>
</g>
<g>
</g>
<g>
</g>
<g>
</g>
<g>
</g>
<g>
</g>
<g>
</g>
<g>
</g>
<g>
</g>
</svg>
