<svg height="464pt" viewBox="-40 0 464 464" width="464pt" xmlns="http://www.w3.org/2000/svg"><path d="m384 64v384c-.027344 8.824219-7.175781 15.972656-16 16h-32c8.824219-.027344 15.972656-7.175781 16-16v-384zm0 0" fill="#5aaae7"/><path d="m352 64v384c-.027344 8.824219-7.175781 15.972656-16 16h-32c8.824219-.027344 15.972656-7.175781 16-16v-384zm0 0" fill="#78b9eb"/><path d="m272 64h-272v384c.0273438 8.824219 7.175781 15.972656 16 16h288c8.824219-.027344 15.972656-7.175781 16-16v-384zm0 0" fill="#96c8ef"/><path d="m352 0h32v64h-32zm0 0" fill="#1a6fb0"/><path d="m320 0h32v64h-32zm0 0" fill="#1e81ce"/><path d="m320 0v64h-320v-64zm0 0" fill="#3d9ae2"/><path d="m272 64v64l-16-32-16 32v-64zm0 0" fill="#ff5023"/><path d="m256 96 8 16-8 16zm0 0" fill="#78b9eb"/><path d="m288 64v64l-16-32v-32zm0 0" fill="#78b9eb"/><g fill="#5aaae7"><path d="m40 136h128v16h-128zm0 0"/><path d="m40 104h48v16h-48zm0 0"/><path d="m104 104h48v16h-48zm0 0"/><path d="m40 184h240v16h-240zm0 0"/><path d="m104 216h176v16h-176zm0 0"/><path d="m40 248h240v16h-240zm0 0"/><path d="m40 280h64v16h-64zm0 0"/><path d="m120 280h160v16h-160zm0 0"/><path d="m40 312h240v16h-240zm0 0"/><path d="m40 216h48v16h-48zm0 0"/><path d="m40 344h96v16h-96zm0 0"/><path d="m152 344h16v16h-16zm0 0"/><path d="m184 344h96v16h-96zm0 0"/><path d="m40 376h160v16h-160zm0 0"/><path d="m216 376h64v16h-64zm0 0"/></g></svg>