<?xml version="1.0" encoding="iso-8859-1"?>
<!-- Generator: Adobe Illustrator 19.0.0, SVG Export Plug-In . SVG Version: 6.00 Build 0)  -->
<svg version="1.1" id="Capa_1" xmlns="http://www.w3.org/2000/svg" xmlns:xlink="http://www.w3.org/1999/xlink" x="0px" y="0px"
	 viewBox="0 0 512 512" style="enable-background:new 0 0 512 512;" xml:space="preserve">
<path style="fill:#A35D45;" d="M412.674,374.257v91.146c0,21.534-17.459,38.993-38.993,38.993H75.028
	c-18.067,0-33.68-10.514-41.051-25.752c-2.9-5.992-4.522-12.714-4.522-19.821c0-12.582,5.1-66.217,13.342-74.47
	c8.253-8.243,19.649-13.342,32.231-13.342h298.653c5.069,0,9.916-0.963,14.356-2.727
	C402.464,362.565,412.674,390.732,412.674,374.257z"/>
<path style="fill:#E2D0C5;" d="M388.037,374.896v86.634c0,9.449-7.665,17.114-17.124,17.114H33.977
	c-2.9-5.992-4.522-12.714-4.522-19.821v-87.557L388.037,374.896z"/>
<path style="fill:#BA7052;" d="M412.674,46.597v327.66c0,16.475-10.21,30.558-24.637,36.276c-4.441,1.764-9.287,2.727-14.356,2.727
	H75.028c-12.582,0-23.978,5.1-32.231,13.342c-8.243,8.253-13.342,19.638-13.342,32.221V53.177c0-25.174,20.399-45.573,45.573-45.573
	h298.653C395.215,7.604,412.674,25.063,412.674,46.597z"/>
<path style="fill:#A35D45;" d="M62.607,9.331c-19.133,5.408-33.152,22.98-33.152,43.846v405.646c0-12.582,5.1-23.968,13.342-32.221
	c5.427-5.421,12.22-9.469,19.81-11.615V9.331z"/>
<circle style="fill:#56BFA1;" cx="375.656" cy="158.102" r="106.891"/>
<polygon style="fill:#FFF2E9;" points="436.665,139.635 394.119,139.635 394.119,97.089 357.194,97.089 357.194,139.635 
	314.648,139.635 314.648,176.561 357.194,176.561 357.194,219.107 394.119,219.107 394.119,176.561 436.665,176.561 "/>
<path d="M29.455,145.255c4.199,0,7.604-3.405,7.604-7.604V53.177c0-20.936,17.033-37.969,37.969-37.969h298.653
	c12.22,0,23.42,7.177,28.533,18.284c1.755,3.814,6.27,5.484,10.087,3.728c3.815-1.756,5.484-6.272,3.728-10.087
	C408.441,10.651,391.819,0,373.681,0H75.028C45.706,0,21.851,23.855,21.851,53.177v84.473
	C21.851,141.85,25.254,145.255,29.455,145.255z"/>
<path d="M412.673,276.87c-4.199,0-7.604,3.405-7.604,7.604v89.782c0,12.967-7.785,24.432-19.84,29.209
	c-3.657,1.453-7.542,2.19-11.549,2.19H75.028c-14.198,0-27.554,5.529-37.611,15.573c-0.121,0.121-0.239,0.241-0.359,0.362V162.999
	c0-4.199-3.405-7.604-7.604-7.604s-7.604,3.405-7.604,7.604v295.824c0,8.108,1.776,15.891,5.28,23.131
	C35.96,500.207,54.76,512,75.028,512h298.653c25.693,0,46.597-20.904,46.597-46.597v-38.466c0-4.199-3.405-7.604-7.604-7.604
	c-4.199,0-7.604,3.405-7.604,7.604v38.466c0,17.308-14.082,31.389-31.389,31.389H75.028c-14.474,0-27.9-8.423-34.207-21.46
	c-2.496-5.16-3.762-10.713-3.762-16.509c0-10.134,3.949-19.668,11.112-26.841c7.179-7.17,16.718-11.119,26.857-11.119h298.653
	c5.937,0,11.712-1.098,17.158-3.263c17.884-7.087,29.439-24.102,29.439-43.345v-89.783
	C420.277,280.275,416.873,276.87,412.673,276.87z"/>
<path d="M65.952,486.252h304.965c13.631,0,24.721-11.09,24.721-24.721v-22.422c0-4.199-3.405-7.604-7.604-7.604
	c-4.199,0-7.604,3.405-7.604,7.604v22.422c0,5.246-4.267,9.513-9.513,9.513H65.952c-4.199,0-7.604,3.405-7.604,7.604
	C58.348,482.847,61.752,486.252,65.952,486.252z"/>
<path d="M65.952,454.485h206.727c4.199,0,7.604-3.405,7.604-7.604s-3.405-7.604-7.604-7.604H65.952
	c-4.199,0-7.604,3.405-7.604,7.604S61.752,454.485,65.952,454.485z"/>
<path d="M361.393,454.485c4.199,0,7.604-3.405,7.604-7.604s-3.405-7.604-7.604-7.604h-63.365c-4.199,0-7.604,3.405-7.604,7.604
	s3.405,7.604,7.604,7.604H361.393z"/>
<path d="M375.657,43.606c-63.131,0-114.492,51.361-114.492,114.492c0,63.132,51.361,114.493,114.492,114.493
	c63.132,0,114.493-51.361,114.493-114.493C490.149,94.967,438.788,43.606,375.657,43.606z M375.657,257.384
	c-54.745,0-99.284-44.539-99.284-99.285c0-54.745,44.539-99.284,99.284-99.284c54.746,0,99.285,44.539,99.285,99.284
	C474.941,212.845,430.402,257.384,375.657,257.384z"/>
<path d="M436.666,132.032h-34.942V97.09c0-4.199-3.405-7.604-7.604-7.604h-36.927c-4.199,0-7.604,3.405-7.604,7.604v34.942h-34.942
	c-4.199,0-7.604,3.405-7.604,7.604v36.926c0,4.199,3.405,7.604,7.604,7.604h34.942v34.942c0,4.199,3.405,7.604,7.604,7.604h36.926
	c4.199,0,7.604-3.405,7.604-7.604v-34.942h34.942c4.199,0,7.604-3.405,7.604-7.604v-36.926
	C444.27,135.437,440.865,132.032,436.666,132.032z M429.062,168.958H394.12c-4.199,0-7.604,3.405-7.604,7.604v34.942h-21.719
	v-34.942c0-4.199-3.405-7.604-7.604-7.604h-34.942V147.24h34.942c4.199,0,7.604-3.405,7.604-7.604v-34.942h21.718v34.942
	c0,4.199,3.405,7.604,7.604,7.604h34.942v21.718H429.062z"/>
<g>
</g>
<g>
</g>
<g>
</g>
<g>
</g>
<g>
</g>
<g>
</g>
<g>
</g>
<g>
</g>
<g>
</g>
<g>
</g>
<g>
</g>
<g>
</g>
<g>
</g>
<g>
</g>
<g>
</g>
</svg>
